<?xml version="1.0" encoding="UTF-8"?>
<svg width="100px" height="100px" viewBox="0 0 100 100" version="1.1" xmlns="http://www.w3.org/2000/svg" xmlns:xlink="http://www.w3.org/1999/xlink">
    <!-- Generator: Sketch 58 (84663) - https://sketch.com -->
    <title>Group</title>
    <desc>Created with Sketch.</desc>
    <g id="Page-1" stroke="none" stroke-width="1" fill="none" fill-rule="evenodd">
        <g id="Group">
            <rect id="Rectangle" fill="#202025" x="0" y="0" width="100" height="100"></rect>
            <g id="Group-2" transform="translate(15.000000, 34.000000)" fill-rule="nonzero">
                <g id="003-van-black-shape-in-right-direction" transform="translate(1.000000, 0.000000)" fill="#FFC61B">
                    <path d="M3.81769777,26.2734935 C4.70899152,26.3706103 5.70548812,26.4559731 6.77846923,26.5326674 C6.82081411,22.6909004 9.94744856,19.5761131 13.7891107,19.5761131 C17.6577329,19.5761131 20.8047339,22.7324799 20.8047339,26.6102432 C20.8047339,26.7357162 20.79184,26.8559 20.7862721,26.9801976 C29.7663167,27.0589489 39.9702602,26.8901333 48.373887,26.697516 C48.373887,26.6681312 48.3691983,26.6397749 48.3691983,26.6102432 C48.3691983,22.7324799 51.5159062,19.5761131 55.3842354,19.5761131 C59.1598161,19.5761131 62.2382448,22.583646 62.3844738,26.3335854 C63.7954813,26.2970014 64.8006227,26.2734935 65.260409,26.2734935 C69.1904239,26.2734935 68.99848,26.3694349 68.99848,22.6206708 C68.99848,18.8724944 68.0402257,19.448877 68.0402257,19.448877 C68.0402257,13.2984944 67.4652731,15.9895531 63.1519564,11.6466287 C58.8374675,7.30546733 46.7597998,1.38031911 46.7597998,1.38031911 C46.7597998,1.38031911 7.74712664,-2.08003328 3.91323016,1.95699553 C0.0793336903,5.99387741 0.557581725,23.2941701 0.557581725,23.2941701 C-1.74266825,26.8504638 3.81769777,26.2734935 3.81769777,26.2734935 Z" id="Path"></path>
                    <path d="M13.9995003,22 C11.2399191,22 9.00324789,24.2360745 9,26.994441 C9,26.9965647 9,26.9974391 9,26.9989382 C9,29.7613022 11.2389197,32 14.0004997,32 C16.6578974,32 18.8098736,29.9209504 18.9695198,27.3037439 C18.9755159,27.2001849 19,27.1034965 19,26.9989382 C19.0001249,24.2391975 16.7609554,22 13.9995003,22 Z" id="Path"></path>
                    <path d="M54.9999375,22 C52.2391416,22 50,24.2389458 50,26.9993755 C50,27.0178616 50.0051216,27.0329753 50.0051216,27.0504622 C50.0337277,29.7870347 52.2552559,32 54.9990631,32 C57.7608584,32 60,29.7614289 60,26.9993755 C60,26.9279291 59.981887,26.8617287 59.9790139,26.790657 C59.8668382,24.1287784 57.6902802,22 54.9999375,22 Z" id="Path"></path>
                </g>
                <g id="squares" transform="translate(26.000000, 13.000000)" fill="#202025">
                    <rect id="Rectangle" x="12" y="0" width="3" height="3"></rect>
                    <rect id="Rectangle" x="0" y="0" width="3" height="3"></rect>
                    <rect id="Rectangle" x="6" y="0" width="3" height="3"></rect>
                    <rect id="Rectangle" x="3" y="3" width="3" height="3"></rect>
                    <rect id="Rectangle" x="9" y="3" width="3" height="3"></rect>
                </g>
            </g>
        </g>
    </g>
</svg>