<?xml version="1.0" encoding="UTF-8"?>
<svg width="100px" height="100px" viewBox="0 0 100 100" version="1.1" xmlns="http://www.w3.org/2000/svg" xmlns:xlink="http://www.w3.org/1999/xlink">
    <!-- Generator: Sketch 58 (84663) - https://sketch.com -->
    <title>Group</title>
    <desc>Created with Sketch.</desc>
    <g id="Page-1" stroke="none" stroke-width="1" fill="none" fill-rule="evenodd">
        <g id="Group">
            <rect id="Rectangle" fill="#202025" x="0" y="0" width="100" height="100"></rect>
            <g id="Group-2" transform="translate(15.000000, 39.000000)" fill-rule="nonzero">
                <g id="001-personal-car-side-view-silhouette" transform="translate(35.000000, 11.000000) scale(-1, 1) translate(-35.000000, -11.000000) translate(1.000000, 0.000000)" fill="#FFC61B">
                    <path d="M67.0165398,11.5892039 C67.0165398,11.5892039 66.8467659,8.7127413 66.5039175,7.65773446 C66.1621005,6.60378772 66.1631319,6.60378772 66.6747229,5.93635171 C67.1863138,5.26976379 65.1706869,5.72560477 64.8278384,5.79578308 C64.4860215,5.8672335 64.6227895,6.1119035 64.6227895,6.1119035 C60.6575474,6.2876673 51.5642254,1.05312873 44.3530629,0.315302397 C37.141694,-0.421463837 30.0992739,0.281167328 27.5015061,0.912560088 C24.9037383,1.54480093 16.3583136,6.2876673 15.4023812,6.53360941 C14.4462426,6.77955152 14.8555153,6.2876673 14.8555153,6.2876673 C9.93454719,6.49735415 1.49164701,10.8195747 1.49164701,10.8195747 C1.14983002,11.0655168 0.876293921,12.5057623 0.876293921,12.5057623 L1.04730556,12.9976465 C-0.354205971,14.3337906 0.0558918979,17.1443153 0.0558918979,17.1443153 L0.741795023,16.8973131 C0.984181842,17.3540021 1.04730556,18.3727537 1.04730556,18.3727537 C-0.113882018,18.9348162 0.739732156,19.4269125 0.739732156,19.4269125 C0.739732156,19.4269125 1.25338593,18.9712835 3.33749999,19.6387195 C4.14284309,19.8956866 5.93650555,19.9855827 7.83558049,20 C7.56864556,19.3071217 7.41681858,18.5553021 7.41681858,17.7657431 C7.41681858,14.4073612 10.0744095,11.6759197 13.3419901,11.6759197 C16.608333,11.6759197 19.2671617,14.4073612 19.2671617,17.7657431 C19.2671617,18.4946647 19.1347257,19.1919954 18.9051286,19.8418338 L49.3256027,19.7892531 C49.107764,19.154468 48.9827542,18.476219 48.9827542,17.7657431 C48.9827542,14.4073612 51.6405515,11.6759197 54.9081321,11.6759197 C58.174475,11.6759197 60.8333037,14.4073612 60.8333037,17.7657431 C60.8333037,18.3903513 60.7404747,18.9941816 60.569463,19.5619686 C63.5967197,18.8428 67.1229838,18.3388307 67.1229838,18.3388307 L67.7721679,17.4604357 C67.7721679,17.4604357 68.2847902,13.7015498 67.7721679,13.1040801 C67.2589267,12.5080945 67.0165398,11.5892039 67.0165398,11.5892039 Z" id="Path"></path>
                    <path d="M13.5008646,22 C15.3106253,22 16.8608057,20.9244038 17.5751799,19.3834461 C17.8407165,18.8093337 18,18.1756581 18,17.4999039 C18,15.0145812 15.9852266,13 13.5000961,13 C11.0147734,13 9,15.0136205 9,17.4999039 C9,18.2313785 9.19098653,18.9128968 9.50148374,19.522555 C10.2454474,20.9872334 11.7468244,22 13.5008646,22 Z" id="Path"></path>
                    <path d="M54.5009607,22 C56.2899321,22 57.8218266,20.9472684 58.5463686,19.4351316 C58.8289996,18.8479537 59,18.1954484 59,17.4999039 C59,15.0145812 56.9852696,13 54.5,13 C52.0145382,13 50,15.0136205 50,17.4999039 C50,18.1535621 50.1462149,18.7714822 50.3969515,19.3315685 C51.1015115,20.9017314 52.670488,22 54.5009607,22 Z" id="Path"></path>
                </g>
                <g id="squares" transform="translate(26.000000, 8.000000)" fill="#202025">
                    <rect id="Rectangle" x="12" y="0" width="3" height="3"></rect>
                    <rect id="Rectangle" x="0" y="0" width="3" height="3"></rect>
                    <rect id="Rectangle" x="6" y="0" width="3" height="3"></rect>
                    <rect id="Rectangle" x="3" y="3" width="3" height="3"></rect>
                    <rect id="Rectangle" x="9" y="3" width="3" height="3"></rect>
                </g>
            </g>
        </g>
    </g>
</svg>