<?xml version="1.0" encoding="UTF-8"?>
<svg width="100px" height="100px" viewBox="0 0 100 100" version="1.1" xmlns="http://www.w3.org/2000/svg" xmlns:xlink="http://www.w3.org/1999/xlink">
    <!-- Generator: Sketch 58 (84663) - https://sketch.com -->
    <title>Group</title>
    <desc>Created with Sketch.</desc>
    <g id="Page-1" stroke="none" stroke-width="1" fill="none" fill-rule="evenodd">
        <g id="Group">
            <rect id="Rectangle" fill="#202025" x="0" y="0" width="100" height="100"></rect>
            <g id="Group-2" transform="translate(15.000000, 39.000000)" fill-rule="nonzero">
                <g id="004-lowered-racing-car-side-view-silhouette" transform="translate(35.000000, 11.000000) scale(-1, 1) translate(-35.000000, -11.000000) translate(0.000000, 1.000000)" fill="#FFC61B">
                    <path d="M8.76473809,17.630023 C8.87096185,17.8011971 8.99196934,17.9590496 9.11772221,18.1137998 C10.0344953,19.2552648 11.424165,20 13.0005475,20 C14.5656142,20 15.9445154,19.2665791 16.860741,18.1404431 C16.9877715,17.9853279 17.1116992,17.8303953 17.2188356,17.6603161 C17.3166636,17.5072083 17.3998905,17.3447936 17.4801971,17.1801891 C17.8034313,16.5188511 18,15.7854301 18,14.99927 C18,12.2391328 15.7614528,10 12.999635,10 C10.2385472,10 8,12.2391328 8,14.99927 C8,15.772291 8.18945063,16.4942151 8.50228144,17.1464287 C8.581858,17.3135881 8.6678226,17.4752728 8.76473809,17.630023 Z" id="Path"></path>
                    <path d="M52.4145709,18.4766024 C53.3236121,19.4141481 54.5909041,20 56,20 C57.5412271,20 58.9030551,19.2874872 59.8208563,18.1913418 C59.9644852,18.0192364 60.1024565,17.8462184 60.2223601,17.6562272 C60.3291236,17.4870419 60.422747,17.3103738 60.5087053,17.1289604 C60.8158558,16.4805081 61,15.7641627 61,15.0005475 C61,12.2391955 58.7621637,10 56,10 C53.2385663,10.0009125 51,12.240108 51,15.0005475 C51,15.9163747 51.2646275,16.7641261 51.6936891,17.5031026 C51.79297,17.6713754 51.895901,17.8338079 52.0121546,17.98894 C52.1404533,18.1581253 52.2689346,18.325303 52.4145709,18.4766024 Z" id="Path"></path>
                    <path d="M69.5837041,2.4608312 L63.4961891,4.34161692 C63.4961891,4.34161692 62.8322083,4.83016586 62.0762493,5.37510219 C61.4364286,5.14253077 60.7306974,4.8786803 59.9308686,4.56759208 C53.0172453,1.8786579 44.126091,0 38.3075168,0 C37.5778373,0 36.8962662,0.031066265 36.286116,0.0904326207 C33.0384805,0.405138141 28.569273,2.03015914 23.0009897,4.91591726 C22.7714681,5.03592667 22.6201492,5.11486903 22.5631396,5.13955181 C20.9547929,5.83109538 18.9467437,6.16750473 16.4224299,6.16750473 C14.509114,6.16750473 12.6309787,5.97195749 11.1230874,5.81556225 C10.2889258,5.72853415 9.55755082,5.65299632 8.9753755,5.62320675 C8.79099526,5.61448266 8.62696042,5.61001422 8.48221134,5.61001422 C7.29921075,5.61001422 6.95185533,5.91152722 6.69223948,6.5037013 C6.57970395,6.76095551 6.45254516,7.05182937 5.31998423,7.37142889 C2.31416243,8.21766544 0.226850936,10.5821061 0.140806823,10.6812628 L0.00156795072,10.8397859 L0.00156795072,15.6614404 L0.303782002,15.8176229 C0.695642998,16.0238093 0.838696634,16.1714804 0.877691995,16.2078662 C0.40360165,16.6296014 -0.189594093,17.2632681 0.0583655424,17.9222559 C0.306960972,18.5789032 1.16189188,18.5965641 1.25895643,18.5965641 L7.02921026,18.5965641 C6.91667473,18.4148477 6.81346419,18.2265351 6.7180951,18.0324773 C6.62696463,17.8496971 6.54473528,17.6624483 6.47077125,17.4686034 C6.16961686,16.69067 5.99880022,15.8489019 5.99880022,14.9650029 C5.99880022,11.1298086 9.10719678,8.00764898 12.9289541,8.00764898 C16.7496518,8.00764898 19.859108,11.1285319 19.859108,14.9650029 C19.859108,15.8684779 19.6812977,16.7291837 19.3680632,17.5213735 C19.2928276,17.7130906 19.2072073,17.8992754 19.1150172,18.0822685 C19.0183765,18.2750496 18.9130467,18.4612344 18.8007231,18.6431635 L49.2486827,18.9846797 C49.2486827,18.9846797 49.5284321,18.9923398 49.9970122,19 C49.8654029,18.8172197 49.7424827,18.6252898 49.630583,18.4291042 C49.5241935,18.2439833 49.4277647,18.05333 49.3376939,17.8582084 C48.9326932,16.9768627 48.7010522,15.9984881 48.7010522,14.9647901 C48.7010522,11.1295958 51.8100846,8.00743619 55.6312061,8.00743619 C59.4523277,8.00743619 62.5611481,11.1283191 62.5611481,14.9647901 C62.5611481,15.7416595 62.4284791,16.4863987 62.1936592,17.184113 C62.1211787,17.404343 62.0368301,17.6171256 61.9423087,17.8254398 C61.8446084,18.0424781 61.7358876,18.2529202 61.6163583,18.4578298 C62.7391704,18.2486645 63.5006396,17.9797073 63.8857188,17.6535115 C65.7591916,16.0614718 67.8628218,8.44576843 68.1294314,7.45845699 L68.1546512,7.32631897 L67.4005996,7.19418095 L67.0682913,7.08608738 C67.1373809,6.89883865 67.2810704,6.82776925 67.2162194,6.82457751 C67.1011407,6.82457751 66.9101906,6.80968273 66.6026782,6.75350811 C67.4652387,5.65767753 68.9292602,4.95145196 69.5832802,4.62312835 C70.5206524,4.15330429 69.5837041,2.4608312 69.5837041,2.4608312 Z" id="Path"></path>
                </g>
                <g id="squares" transform="translate(26.000000, 8.000000)" fill="#202025">
                    <rect id="Rectangle" x="12" y="0" width="3" height="3"></rect>
                    <rect id="Rectangle" x="0" y="0" width="3" height="3"></rect>
                    <rect id="Rectangle" x="6" y="0" width="3" height="3"></rect>
                    <rect id="Rectangle" x="3" y="3" width="3" height="3"></rect>
                    <rect id="Rectangle" x="9" y="3" width="3" height="3"></rect>
                </g>
            </g>
        </g>
    </g>
</svg>