<?xml version="1.0" encoding="UTF-8"?>
<svg width="100px" height="100px" viewBox="0 0 100 100" version="1.1" xmlns="http://www.w3.org/2000/svg" xmlns:xlink="http://www.w3.org/1999/xlink">
    <!-- Generator: Sketch 58 (84663) - https://sketch.com -->
    <title>Group</title>
    <desc>Created with Sketch.</desc>
    <g id="Page-1" stroke="none" stroke-width="1" fill="none" fill-rule="evenodd">
        <g id="Group">
            <rect id="Rectangle" fill="#202025" x="0" y="0" width="100" height="100"></rect>
            <g id="Group-2" transform="translate(15.000000, 33.000000)" fill-rule="nonzero">
                <g id="005-convertible" transform="translate(35.000000, 15.500000) scale(-1, 1) translate(-35.000000, -15.500000) translate(0.000000, 1.000000)" fill="#FFC61B">
                    <path d="M0.597283567,22.7832954 C0.613277027,24.0833897 2.59246777,24.0409371 2.68114579,24.0385395 C2.58475663,23.5694449 2.53349188,23.0828615 2.53349188,22.5842898 C2.53349188,18.5408525 5.86512962,15.2490102 9.96016951,15.2490102 C14.0549238,15.2490102 17.3868471,18.5408525 17.3868471,22.5842898 C17.3868471,23.4320732 17.2329101,24.2420582 16.9643056,25 C25.2286407,24.4634889 51.2487158,24.6551605 52.3486946,24.7760306 C52.4877806,24.7912628 52.7739493,24.7880189 53.1686451,24.7710943 C53.0496937,24.2443149 52.9792939,23.6993415 52.9792939,23.1381487 C52.9792939,19.0552205 56.3424902,15.733478 60.4776565,15.733478 C64.5748384,15.733478 67.9129021,19.0014848 67.969022,23.0353315 L69.2560671,22.4988204 C69.5410935,22.3813352 69.4992534,22.3706163 69.2245086,22.2298597 C68.9057818,22.0665369 68.7124323,21.5645803 69.5398083,20.1159722 C70.583096,18.2864188 69.6119216,16.9610785 68.9904615,16.3630745 C68.7678382,16.1512345 68.5642072,15.7616857 68.5590664,15.4570422 C68.4886666,11.0117857 66.7765096,9.47982379 65.8951557,8.98435498 C65.6262656,8.83400777 65.6304068,8.72554904 65.9358533,8.67350577 C69.9559238,7.98707061 67.2343224,8.02797182 66.8771827,6.96637383 C66.5041923,5.85907931 64.0748999,7.05819 62.8137013,7.38145061 C62.3483202,7.50105139 60.883919,7.75788279 59.2221699,8.03572895 C59.2982816,7.95293926 59.3458336,7.86648256 59.3217006,7.77452535 C59.254728,7.51882226 59.1759031,7.31614971 59.1002197,7.15875056 C58.9679881,6.88189167 58.6671111,6.47711072 58.4290656,6.28064387 C58.1347573,6.03622387 57.6553819,5.79377841 56.9685199,5.9064683 C56.7401847,5.9444077 56.5451216,6.07049626 56.3784755,6.25314133 C56.3436326,6.19884144 56.3087897,6.14327221 56.2766599,6.09997334 C55.9944896,5.71846377 55.487554,5.27560238 54.7270079,5.45232382 C53.8473675,5.65725299 53.4656665,7.72784156 53.3111582,8.9822394 C53.015422,9.01778114 52.6468584,9.04330914 52.3962466,9.04330914 L47.6316233,9.04330914 C48.6090808,7.81429826 47.4731167,7.05579234 46.568915,6.99585091 C46.3270139,6.97906731 45.9744438,7.12447817 45.5887444,7.34026732 C45.3609803,6.96073229 44.9530043,6.73154446 44.5850119,6.69797726 C43.9829724,6.64480569 42.5906845,8.13078901 41.9280983,8.88153779 C41.8845447,8.93132444 41.8571273,8.98703471 41.8371355,9.04203979 L29.5087478,9.04203979 L29.5087478,7.48596025 C29.5087478,6.9512827 29.0692132,6.5171657 28.5278632,6.5171657 C27.9865131,6.5171657 27.5469785,6.9512827 27.5469785,7.48596025 L27.5469785,9.04203979 L25.3520189,9.04203979 C25.0427168,9.04203979 24.9763153,8.87222924 25.201509,8.66363306 C26.6230706,7.34435744 31.2416107,3.00544411 31.0041364,2.53719576 C30.8424882,2.21929462 31.0365517,1.71874841 31.230758,1.35007336 C31.3729855,1.07942017 31.347139,0.691704893 31.0893872,0.521753308 C30.6521374,0.233329248 29.8830233,-0.105868729 28.7974672,0.0315029258 C28.4904499,0.0704295959 28.0066477,0.206672941 27.7284757,0.340659668 C25.3752951,1.47870061 19.5840916,6.41039943 17.9733216,7.798784 C17.7401313,8.00032825 17.3014535,8.18311435 16.992437,8.20850131 C3.27461742,9.34795264 1.34069388,13.759924 1.09065326,15.3216451 C1.04253008,15.6234678 0.853178935,16.0179529 0.659115427,16.2558852 C-0.512833951,17.6992748 0.164460542,20.5400755 0.516887868,21.7123888 C0.604994699,22.0061724 0.594141994,22.4775236 0.597283567,22.7832954 Z" id="Path"></path>
                    <path d="M48,6.15473582 C48,4.9651716 47.2944813,4 46.4250134,4 C45.8961357,4 45.4311653,4.3595949 45.1452249,4.90620614 C44.9196082,4.55659623 44.5935018,4.33112416 44.2273786,4.33112416 C43.5493341,4.33112416 43,5.08296761 43,6.0098184 C43,6.93693906 43.5493341,6.61458551 44.2273786,6.61458551 C44.4907723,6.61458551 44.7317685,6.6611372 44.9323001,6.66626463 C45.1368632,7.18454006 45.7245715,6.93019244 46.4251628,6.93019244 C47.2956758,6.93019244 48,7.34443497 48,6.15473582 Z" id="Path"></path>
                    <path d="M54.2276459,5.61576534 C54.4908195,5.61576534 54.7324974,5.66232121 54.9329751,5.66744911 C55.136289,6.18577116 55.7238394,5.93018616 56.4248395,5.93018616 C57.2934766,5.93018616 58,6.34446596 58,5.15465978 C58,3.9648536 57.2936259,3 56.4248395,3 C55.896701,3 55.4306613,3.35935736 55.1447977,3.90601777 C54.9204359,3.55637642 54.5942678,3.33088406 54.2276459,3.33088406 C53.5505299,3.33088406 53,4.08306503 53,5.00999921 C53,5.93922745 53.5491864,5.61576534 54.2276459,5.61576534 Z" id="Path"></path>
                    <path d="M9.50012455,29 C11.7460087,29 13.6740415,27.6518564 14.5288276,25.7230545 C14.8299894,25.0422569 15,24.292707 15,23.4999377 C15,20.4626289 12.5380217,18 9.50012455,18 C6.46222741,18 4,20.4626289 4,23.4999377 C4,23.9087152 4.04795172,24.3050375 4.13177382,24.6879083 C4.67593243,27.1536511 6.8711248,29 9.50012455,29 Z" id="Path"></path>
                    <path d="M60.5008006,18 C57.4630984,18 55,20.4618408 55,23.5001848 C55,23.9722275 55.0661441,24.4272708 55.1787246,24.8646987 C55.7858463,27.24068 57.9349756,29 60.5008006,29 C63.4411959,29 65.8356867,26.6891833 65.9862046,23.7849872 C65.9906388,23.6897656 66,23.596515 66,23.4991993 C65.9990146,20.461964 63.5373943,18 60.5008006,18 Z" id="Path"></path>
                </g>
                <g id="squares" transform="translate(26.000000, 15.000000)" fill="#202025">
                    <rect id="Rectangle" x="12" y="0" width="3" height="3"></rect>
                    <rect id="Rectangle" x="0" y="0" width="3" height="3"></rect>
                    <rect id="Rectangle" x="6" y="0" width="3" height="3"></rect>
                    <rect id="Rectangle" x="3" y="3" width="3" height="3"></rect>
                    <rect id="Rectangle" x="9" y="3" width="3" height="3"></rect>
                </g>
            </g>
        </g>
    </g>
</svg>