<?xml version="1.0" encoding="UTF-8"?>
<svg width="173px" height="60px" viewBox="0 0 173 60" version="1.1" xmlns="http://www.w3.org/2000/svg" xmlns:xlink="http://www.w3.org/1999/xlink">
    <!-- Generator: Sketch 58 (84663) - https://sketch.com -->
    <title>Group 3</title>
    <desc>Created with Sketch.</desc>
    <g id="Page-1" stroke="none" stroke-width="1" fill="none" fill-rule="evenodd">
        <g id="Group-3">
            <rect id="Rectangle" fill="#FFC61B" x="0" y="0" width="89" height="60"></rect>
            <path d="M32.5546875,42 L26.4199219,42 L17.3496094,26.0742188 L17.3496094,42 L11.1796875,42 L11.1796875,16.40625 L17.3496094,16.40625 L26.4023438,32.3320312 L26.4023438,16.40625 L32.5546875,16.40625 L32.5546875,42 Z M45.8261719,27.515625 L50.5371094,16.40625 L57.1992188,16.40625 L48.9550781,32.8066406 L48.9550781,42 L42.6972656,42 L42.6972656,32.8066406 L34.4707031,16.40625 L41.0976562,16.40625 L45.8261719,27.515625 Z M79.7695312,33.3339844 C79.6874996,35.1152433 79.2070356,36.6884697 78.328125,38.0537109 C77.4492144,39.4189521 76.2158283,40.4765588 74.6279297,41.2265625 C73.0400311,41.9765662 71.2265727,42.3515625 69.1875,42.3515625 C65.8242019,42.3515625 63.1757909,41.2558703 61.2421875,39.0644531 C59.3085841,36.8730359 58.3417969,33.7793169 58.3417969,29.7832031 L58.3417969,28.5175781 C58.3417969,26.0097531 58.7783159,23.8154391 59.6513672,21.9345703 C60.5244184,20.0537015 61.7812418,18.6005911 63.421875,17.5751953 C65.0625082,16.5497996 66.9609267,16.0371094 69.1171875,16.0371094 C72.2226718,16.0371094 74.7187406,16.854484 76.6054688,18.4892578 C78.4921969,20.1240316 79.5644518,22.3769388 79.8222656,25.2480469 L73.6699219,25.2480469 C73.6230466,23.6894453 73.2304724,22.5703159 72.4921875,21.890625 C71.7539026,21.2109341 70.6289138,20.8710938 69.1171875,20.8710938 C67.5820236,20.8710938 66.4570348,21.4453068 65.7421875,22.59375 C65.0273402,23.7421932 64.6523439,25.5761593 64.6171875,28.0957031 L64.6171875,29.90625 C64.6171875,32.6367324 64.9599575,34.5878848 65.6455078,35.7597656 C66.3310581,36.9316465 67.5117104,37.5175781 69.1875,37.5175781 C70.6054758,37.5175781 71.6894494,37.1835971 72.4394531,36.515625 C73.1894569,35.8476529 73.5878904,34.7871166 73.6347656,33.3339844 L79.7695312,33.3339844 Z" id="NYC" fill="#202025" fill-rule="nonzero"></path>
            <path d="M125.913086,21.1699219 L118.231445,21.1699219 L118.231445,42 L112.061523,42 L112.061523,21.1699219 L104.520508,21.1699219 L104.520508,16.40625 L125.913086,16.40625 L125.913086,21.1699219 Z M138.956055,42 C138.745116,41.6132793 138.557618,41.0449256 138.393555,40.2949219 C137.303705,41.6660225 135.780283,42.3515625 133.823242,42.3515625 C132.030264,42.3515625 130.506842,41.8095757 129.25293,40.7255859 C127.999017,39.6415961 127.37207,38.2793051 127.37207,36.6386719 C127.37207,34.5761616 128.133781,33.0175834 129.657227,31.9628906 C131.180672,30.9081979 133.395493,30.3808594 136.301758,30.3808594 L138.129883,30.3808594 L138.129883,29.3789062 C138.129883,27.6328038 137.374031,26.7597656 135.862305,26.7597656 C134.456048,26.7597656 133.75293,27.451165 133.75293,28.8339844 L127.829102,28.8339844 C127.829102,26.9941314 128.61132,25.5000057 130.175781,24.3515625 C131.740242,23.2031193 133.735339,22.6289062 136.161133,22.6289062 C138.586926,22.6289062 140.502923,23.2206972 141.90918,24.4042969 C143.315437,25.5878965 144.036133,27.2109272 144.071289,29.2734375 L144.071289,37.6933594 C144.094727,39.4394619 144.364255,40.775386 144.879883,41.7011719 L144.879883,42 L138.956055,42 Z M135.24707,38.1328125 C135.985355,38.1328125 136.597654,37.974611 137.083984,37.6582031 C137.570315,37.3417953 137.918944,36.984377 138.129883,36.5859375 L138.129883,33.5449219 L136.407227,33.5449219 C134.344716,33.5449219 133.313477,34.4706939 133.313477,36.3222656 C133.313477,36.8613308 133.495115,37.2978499 133.858398,37.6318359 C134.221682,37.965822 134.684568,38.1328125 135.24707,38.1328125 Z M155.057617,28.21875 L157.817383,22.9804688 L163.969727,22.9804688 L158.959961,32.2441406 L164.21582,42 L158.02832,42 L155.040039,36.375 L152.104492,42 L145.881836,42 L151.155273,32.2441406 L146.163086,22.9804688 L152.385742,22.9804688 L155.057617,28.21875 Z M172.125977,42 L166.18457,42 L166.18457,22.9804688 L172.125977,22.9804688 L172.125977,42 Z M165.833008,18.0761719 C165.833008,17.2324177 166.137692,16.5410183 166.74707,16.0019531 C167.356448,15.4628879 168.147456,15.1933594 169.120117,15.1933594 C170.092778,15.1933594 170.883786,15.4628879 171.493164,16.0019531 C172.102542,16.5410183 172.407227,17.2324177 172.407227,18.0761719 C172.407227,18.9199261 172.102542,19.6113254 171.493164,20.1503906 C170.883786,20.6894558 170.092778,20.9589844 169.120117,20.9589844 C168.147456,20.9589844 167.356448,20.6894558 166.74707,20.1503906 C166.137692,19.6113254 165.833008,18.9199261 165.833008,18.0761719 Z" id="Taxi" fill="#FFFFFF" fill-rule="nonzero"></path>
        </g>
    </g>
</svg>