<?xml version="1.0" encoding="UTF-8"?>
<svg width="100px" height="100px" viewBox="0 0 100 100" version="1.1" xmlns="http://www.w3.org/2000/svg" xmlns:xlink="http://www.w3.org/1999/xlink">
    <!-- Generator: Sketch 58 (84663) - https://sketch.com -->
    <title>Group</title>
    <desc>Created with Sketch.</desc>
    <g id="Page-1" stroke="none" stroke-width="1" fill="none" fill-rule="evenodd">
        <g id="Group">
            <rect id="Rectangle" fill="#202025" x="0" y="0" width="100" height="100"></rect>
            <g id="Group-2" transform="translate(15.000000, 19.000000)" fill="#FFC61B" fill-rule="nonzero">
                <g id="taxi-driver" transform="translate(9.000000, 1.000000)">
                    <path d="M36.8717467,39.0678516 C35.9804044,38.9157422 35.3333333,38.1905859 35.3333333,37.3435547 L35.3333333,35.0864062 C37.51764,32.8661719 38.8666667,29.8292578 38.8666667,26.484375 L38.8666667,18.7579687 C42.5067067,17.1649219 45.9333333,14.4225 45.9333333,10.546875 C45.9333333,3.00222656 34.1617978,0 26.5,0 C18.7758978,0 7.06666667,3.02894531 7.06666667,10.546875 C7.06666667,14.4240234 10.4862267,17.1617578 14.1333333,18.7579687 L14.1333333,26.484375 C14.1333333,29.8292578 15.48236,32.8661719 17.6666667,35.0864062 L17.6666667,37.3435547 C17.6666667,38.1905859 17.0197133,38.9158594 16.1283711,39.0678516 C6.86055556,40.6487109 0,48.7989844 0,58.2421875 L0,60 L53,60 L53,58.2421875 C53,48.8098828 46.1494556,40.6504688 36.8717467,39.0678516 Z M35.3333333,26.484375 C35.3333333,26.5545703 35.3296822,26.6239453 35.3280333,26.6936719 C32.7436356,25.7207813 30.0636022,24.7265625 26.5,24.7265625 C22.9363978,24.7265625 20.2563644,25.7207813 17.6719667,26.6936719 C17.6703178,26.6239453 17.6666667,26.5545703 17.6666667,26.484375 L17.6666667,19.9862109 C20.3630711,20.7097266 23.3785356,21.09375 26.5,21.09375 C29.6214644,21.09375 32.6369289,20.7097266 35.3333333,19.9862109 L35.3333333,26.484375 Z M34.52526,30.1501172 C33.12606,33.170625 30.0560644,35.2734375 26.5,35.2734375 C22.9439356,35.2734375 19.87394,33.170625 18.47474,30.1501172 C21.2827978,29.0958984 23.4520289,28.2421875 26.5,28.2421875 C29.54856,28.2421875 31.7299222,29.1007031 34.52526,30.1501172 Z M35.3333333,16.3311328 C32.8702467,17.0991797 29.86868,17.578125 26.5,17.578125 C23.13132,17.578125 20.1297533,17.0991797 17.6666667,16.3311328 L17.6666667,14.0625 L35.3333333,14.0625 L35.3333333,16.3311328 Z M14.1333333,10.546875 L14.1333333,14.8399219 C11.8856622,13.5718359 10.6,12.0221484 10.6,10.546875 C10.6,7.43449219 16.3194067,3.98964844 24.7333333,3.56050781 L24.7333333,7.03125 L28.2666667,7.03125 L28.2666667,3.56050781 C36.6805933,3.98964844 42.4,7.43449219 42.4,10.546875 C42.4,12.0220313 41.1143378,13.5718359 38.8666667,14.8399219 L38.8666667,10.546875 L31.8,10.546875 L31.8,7.03125 L28.2666667,7.03125 L28.2666667,10.546875 L24.7333333,10.546875 L24.7333333,7.03125 L21.2,7.03125 L21.2,10.546875 L14.1333333,10.546875 Z M3.63297333,56.484375 C4.41949333,49.5594141 9.78486,43.7167969 16.7255044,42.5329687 C17.3155711,42.4323047 17.8683022,42.2407031 18.37086,41.9757422 L22.6981333,46.2813281 C17.5344022,47.5603125 13.2975822,51.4485938 11.5071244,56.484375 L3.63297333,56.484375 Z M24.7333333,56.484375 L15.3164111,56.484375 C17.0853156,52.7146875 20.6237133,50.0635547 24.7333333,49.4660156 L24.7333333,56.484375 Z M20.7751756,39.3960937 C21.0173267,38.8371094 21.1627822,38.2305469 21.1935222,37.5972656 C22.8023667,38.3608594 24.6017756,38.7890625 26.5,38.7890625 C28.3982244,38.7890625 30.1976333,38.3608594 31.8064778,37.5972656 C31.8372178,38.2305469 31.9827911,38.8371094 32.2248244,39.3960937 L26.5,45.0922266 L20.7751756,39.3960937 Z M28.2666667,56.484375 L28.2666667,49.4660156 C32.3762867,50.0635547 35.9146844,52.7146875 37.6835889,56.484375 L28.2666667,56.484375 Z M41.4927578,56.484375 C39.7041844,51.45375 35.4708978,47.5617188 30.3018667,46.2813281 L34.62914,41.9757422 C35.1318156,42.2407031 35.6844289,42.4323047 36.2744956,42.5329687 C43.21514,43.7169141 48.5805067,49.5594141 49.3670267,56.484375 L41.4927578,56.484375 Z" id="Shape"></path>
                </g>
            </g>
        </g>
    </g>
</svg>