<?xml version="1.0" encoding="UTF-8"?>
<svg width="100px" height="100px" viewBox="0 0 100 100" version="1.1" xmlns="http://www.w3.org/2000/svg" xmlns:xlink="http://www.w3.org/1999/xlink">
    <!-- Generator: Sketch 58 (84663) - https://sketch.com -->
    <title>Group</title>
    <desc>Created with Sketch.</desc>
    <g id="Page-1" stroke="none" stroke-width="1" fill="none" fill-rule="evenodd">
        <g id="Group">
            <rect id="Rectangle" fill="#202025" x="0" y="0" width="100" height="100"></rect>
            <g id="Group-2" transform="translate(15.000000, 19.000000)" fill="#FFC61B" fill-rule="nonzero">
                <g id="taxi" transform="translate(5.000000, 1.000000)">
                    <path d="M12.5,34 C9.46732292,34 7,36.4673229 7,39.5 C7,42.5326771 9.46732292,45 12.5,45 C15.5326771,45 18,42.5326771 18,39.5 C18,36.4673229 15.5326771,34 12.5,34 Z M12.5,41.3333333 C11.4891458,41.3333333 10.6666667,40.5108542 10.6666667,39.5 C10.6666667,38.4891458 11.4891458,37.6666667 12.5,37.6666667 C13.5108542,37.6666667 14.3333333,38.4891458 14.3333333,39.5 C14.3333333,40.5108542 13.5108542,41.3333333 12.5,41.3333333 Z" id="Shape"></path>
                    <path d="M47.5,34 C44.4673229,34 42,36.4673229 42,39.5 C42,42.5326771 44.4673229,45 47.5,45 C50.5326771,45 53,42.5326771 53,39.5 C53,36.4673229 50.5326771,34 47.5,34 Z M47.5,41.3333333 C46.4891458,41.3333333 45.6666667,40.5108542 45.6666667,39.5 C45.6666667,38.4891458 46.4891458,37.6666667 47.5,37.6666667 C48.5108542,37.6666667 49.3333333,38.4891458 49.3333333,39.5 C49.3333333,40.5108542 48.5108542,41.3333333 47.5,41.3333333 Z" id="Shape"></path>
                    <path d="M37.4919097,36.4450972 C37.1037363,35.5672663 36.216767,35 35.2325203,35 L24.7672899,35 C23.7830431,35 22.8961909,35.5672663 22.5071981,36.4463472 L20.2011015,41.6709469 C19.8732143,42.410484 19.949655,43.2535426 20.4057236,43.9259213 C20.8617923,44.5984137 21.6293596,45 22.458852,45 L37.5409581,45 C38.3704506,45 39.1380178,44.5985273 39.5940865,43.9259213 C40.0501552,43.2535426 40.1264788,42.4105976 39.7998793,41.6736742 L37.4919097,36.4450972 Z M24.4121276,41.3635641 L25.6159802,38.6363223 L34.3838299,38.6363223 L35.5876826,41.3635641 L24.4121276,41.3635641 Z" id="Shape"></path>
                    <path d="M56.2207031,27.6901172 L54.3959766,26.6472656 L56.2136719,24.375 L58.125,24.375 C59.1604688,24.375 60,23.5354688 60,22.5 C60,21.4645313 59.1604688,20.625 58.125,20.625 L55.3125,20.625 C54.7429688,20.625 54.2041406,20.8838672 53.8483594,21.3287109 L52.4272266,23.1051563 L50.1601172,14.4887109 C49.0769531,10.3737891 45.3483984,7.5 41.0929688,7.5 L38.9639063,7.5 L37.4439844,1.4203125 C37.2353906,0.585585937 36.4853906,0 35.625,0 L24.375,0 C23.5146094,0 22.7646094,0.585585938 22.5560156,1.4203125 L21.0359766,7.5 L18.9070313,7.5 C14.6516016,7.5 10.9231641,10.3737891 9.83988281,14.4889453 L7.57289063,23.1051563 L6.15175781,21.3287109 C5.79585938,20.8838672 5.25703125,20.625 4.6875,20.625 L1.875,20.625 C0.83953125,20.625 0,21.4645313 0,22.5 C0,23.5354688 0.83953125,24.375 1.875,24.375 L3.78632813,24.375 L5.60414063,26.6472656 L3.77941406,27.6901172 C1.44820313,29.0224219 0,31.5178125 0,34.2023438 L0,45.9375 C0,48.3817969 1.56761719,50.4659766 3.75,51.24 L3.75,55.3125 C3.75,57.8971875 5.8528125,60 8.4375,60 L14.0625,60 C16.6471875,60 18.75,57.8971875 18.75,55.3125 L18.75,51.5625 L41.25,51.5625 L41.25,55.3125 C41.25,57.8971875 43.3528125,60 45.9375,60 L51.5625,60 C54.1471875,60 56.25,57.8971875 56.25,55.3125 L56.25,51.24 C58.4323828,50.4659766 60,48.3819141 60,45.9375 L60,34.2023438 C60,31.5178125 58.5517969,29.0224219 56.2207031,27.6901172 Z M25.8389063,3.75 L34.1610938,3.75 L35.0985938,7.5 L24.9014063,7.5 L25.8389063,3.75 Z M13.4663672,15.4433203 C14.1162891,12.9744141 16.3536328,11.25 18.9070313,11.25 L41.0929687,11.25 C43.6463672,11.25 45.8837109,12.9744141 46.5336328,15.4430859 L49.1302734,25.3125 L10.8697266,25.3125 L13.4663672,15.4433203 Z M15,55.3125 C15,55.8294141 14.5794141,56.25 14.0625,56.25 L8.4375,56.25 C7.92058594,56.25 7.5,55.8294141 7.5,55.3125 L7.5,51.5625 L15,51.5625 L15,55.3125 Z M51.5625,56.25 L45.9375,56.25 C45.4205859,56.25 45,55.8294141 45,55.3125 L45,51.5625 L52.5,51.5625 L52.5,55.3125 C52.5,55.8294141 52.0794141,56.25 51.5625,56.25 Z M56.25,45.9375 C56.25,46.9713281 55.4088281,47.8125 54.375,47.8125 L5.625,47.8125 C4.59117188,47.8125 3.75,46.9713281 3.75,45.9375 L3.75,34.2023437 C3.75,32.8599609 4.47421875,31.6121484 5.64011719,30.9458203 L8.93542969,29.0625 L51.0645703,29.0625 L54.3598828,30.9459375 C55.5257812,31.6121484 56.25,32.8599609 56.25,34.2023437 L56.25,45.9375 Z" id="Shape"></path>
                </g>
            </g>
        </g>
    </g>
</svg>