<?xml version="1.0" encoding="UTF-8"?>
<svg width="100px" height="100px" viewBox="0 0 100 100" version="1.1" xmlns="http://www.w3.org/2000/svg" xmlns:xlink="http://www.w3.org/1999/xlink">
    <!-- Generator: Sketch 58 (84663) - https://sketch.com -->
    <title>Group</title>
    <desc>Created with Sketch.</desc>
    <g id="Page-1" stroke="none" stroke-width="1" fill="none" fill-rule="evenodd">
        <g id="Group">
            <rect id="Rectangle" fill="#202025" x="0" y="0" width="100" height="100"></rect>
            <g id="Group-2" transform="translate(15.000000, 20.000000)" fill="#FFC61C" fill-rule="nonzero">
                <g id="verified" transform="translate(10.000000, 0.000000)">
                    <path d="M49.5442569,9.71553934 L26.4053681,0.179165173 C25.8257153,-0.0596631269 25.1741667,-0.0597803145 24.5946319,0.179165173 L1.45574306,9.71553934 C0.574458333,10.0788209 0,10.932884 0,11.8801112 L0,23.4728932 C0,39.4353658 9.71939583,53.7940091 24.6077361,59.8262401 C25.1795972,60.05792 25.8202847,60.05792 26.3922639,59.8262401 C41.2803681,53.7941263 51,39.435483 51,23.4728932 L51,11.8801112 C51,10.932884 50.4256597,10.0788209 49.5442569,9.71553934 Z M46.2777778,23.4728932 C46.2777778,37.0426297 38.25,49.5344748 25.5,55.1104945 C13.0907083,49.6834202 4.72222222,37.4103643 4.72222222,23.4728932 L4.72222222,13.4447999 L25.5,4.88143424 L46.2777778,13.4447999 L46.2777778,23.4728932 Z M22.8902639,31.3729771 L33.0387917,21.2991806 C33.9608056,20.3839456 35.4557431,20.3838284 36.377875,21.2991806 C37.3000069,22.2145329 37.2998889,23.6984793 36.3777569,24.6137143 L24.5598056,36.3447776 C23.6375556,37.260247 22.1426181,37.2598955 21.2207222,36.3447776 L14.622125,29.7946947 C13.6999931,28.8793424 13.6999931,27.395396 14.622125,26.480161 C15.5442569,25.564926 17.0391944,25.5648088 17.9612083,26.480161 L22.8902639,31.3729771 Z" id="Shape"></path>
                </g>
            </g>
        </g>
    </g>
</svg>